<svg class="gridItem__media" version="1.1" id="Layer_1" xmlns="http://www.w3.org/2000/svg" xmlns:xlink="http://www.w3.org/1999/xlink" x="0px" y="0px" width="1600"  viewBox="0 0 112 16" style="enable-background:new 0 0 1600 1200;" xml:space="preserve" fill="none">
<path d="M26.7404 11.1726H26.2849C25.8946 11.1726 25.4969 11.1937 25.0921 11.2358C24.7017 11.2639 24.3475 11.3272 24.0294 11.4256C23.7258 11.5239 23.4728 11.6715 23.2704 11.8682C23.0679 12.0509 22.9667 12.2969 22.9667 12.6061C22.9667 12.8028 23.0101 12.9715 23.0969 13.112C23.1981 13.2525 23.321 13.365 23.4655 13.4493C23.6101 13.5336 23.7764 13.5968 23.9644 13.639C24.1523 13.6671 24.333 13.6812 24.5065 13.6812C25.2295 13.6812 25.7789 13.4914 26.1548 13.112C26.5452 12.7185 26.7404 12.1915 26.7404 11.531V11.1726ZM20.2124 6.68248C20.8486 6.09223 21.5859 5.64954 22.4245 5.35441C23.2776 5.05929 24.1451 4.91173 25.0271 4.91173C25.9379 4.91173 26.7042 5.02415 27.3259 5.24901C27.9621 5.45982 28.4754 5.7971 28.8658 6.26087C29.2561 6.71058 29.5381 7.28678 29.7116 7.98946C29.8995 8.67808 29.9935 9.50022 29.9935 10.4559V15.747H26.7404V14.6298H26.6753C26.4006 15.0654 25.9813 15.4027 25.4174 15.6416C24.868 15.8805 24.268 16 23.6174 16C23.1836 16 22.7354 15.9438 22.2727 15.8314C21.8101 15.7189 21.3835 15.5362 20.9932 15.2833C20.6172 15.0303 20.3064 14.693 20.0606 14.2714C19.8148 13.8498 19.6919 13.3298 19.6919 12.7115C19.6919 11.9526 19.9015 11.3412 20.3208 10.8775C20.7546 10.4137 21.304 10.0553 21.9691 9.80237C22.6486 9.54941 23.4005 9.38076 24.2246 9.29644C25.0487 9.21212 25.8512 9.16996 26.6319 9.16996V9.00132C26.6319 8.48133 26.444 8.10189 26.0681 7.86298C25.6921 7.61001 25.2295 7.48353 24.68 7.48353C24.174 7.48353 23.6824 7.58893 23.2053 7.79974C22.7426 8.01054 22.345 8.2635 22.0125 8.55863L20.2124 6.68248Z" fill="#001E40"></path><path d="M36.4484 1.89723C36.4484 2.16425 36.3905 2.41722 36.2749 2.65613C36.1737 2.88098 36.0291 3.07773 35.8411 3.24638C35.6676 3.41502 35.4507 3.54853 35.1905 3.6469C34.9447 3.74528 34.6844 3.79447 34.4097 3.79447C33.8314 3.79447 33.347 3.61177 32.9567 3.24638C32.5663 2.86693 32.3711 2.41722 32.3711 1.89723C32.3711 1.64427 32.4217 1.40536 32.5229 1.1805C32.6241 0.94159 32.7687 0.737813 32.9567 0.56917C33.1446 0.400527 33.3615 0.267018 33.6073 0.168643C33.8531 0.0562144 34.1206 0 34.4097 0C34.6844 0 34.9447 0.0491877 35.1905 0.147563C35.4507 0.245938 35.6676 0.379447 35.8411 0.54809C36.0291 0.716732 36.1737 0.920509 36.2749 1.15942C36.3905 1.38428 36.4484 1.63021 36.4484 1.89723ZM32.6313 15.747V5.24901H36.1881V15.747H32.6313Z" fill="#001E40"></path><path d="M46.0369 15.747V10.0132C46.0369 9.71805 46.008 9.43698 45.9502 9.16996C45.9068 8.90294 45.8273 8.67106 45.7116 8.47431C45.5959 8.2635 45.4297 8.10189 45.2128 7.98946C45.0104 7.86298 44.7501 7.79974 44.432 7.79974C44.1139 7.79974 43.832 7.86298 43.5862 7.98946C43.3549 8.10189 43.1597 8.2635 43.0006 8.47431C42.8416 8.68511 42.7187 8.93105 42.632 9.21212C42.5597 9.47914 42.5235 9.76021 42.5235 10.0553V15.747H38.9451V5.24901H42.3934V6.70356H42.4368C42.5669 6.4787 42.7332 6.26087 42.9356 6.05007C43.1525 5.82521 43.3983 5.63549 43.673 5.4809C43.9621 5.32631 44.273 5.19982 44.6055 5.10145C44.9381 5.00307 45.2923 4.95389 45.6682 4.95389C46.3911 4.95389 47.0056 5.08037 47.5117 5.33333C48.0177 5.5863 48.4226 5.91656 48.7262 6.32411C49.0443 6.71761 49.2684 7.17435 49.3985 7.69433C49.5431 8.21432 49.6154 8.7343 49.6154 9.25428V15.747H46.0369Z" fill="#001E40"></path><path d="M56.1094 7.8419V11.8472C56.1094 12.339 56.2033 12.7115 56.3913 12.9644C56.5937 13.2033 56.948 13.3228 57.454 13.3228C57.6275 13.3228 57.8082 13.3087 57.9962 13.2806C58.1986 13.2525 58.3649 13.2104 58.495 13.1542L58.5384 15.6838C58.2926 15.7681 57.9817 15.8384 57.6058 15.8946C57.2299 15.9649 56.854 16 56.4781 16C55.7551 16 55.1479 15.9157 54.6563 15.747C54.1647 15.5643 53.7671 15.3114 53.4635 14.9881C53.1743 14.6509 52.9647 14.2574 52.8345 13.8076C52.7044 13.3439 52.6393 12.8309 52.6393 12.2688V7.8419H50.9043V5.24901H52.6177V2.48748H56.1094V5.24901H58.6468V7.8419H56.1094Z" fill="#001E40"></path><path d="M66.6342 11.1726H66.1788C65.7884 11.1726 65.3908 11.1937 64.9859 11.2358C64.5956 11.2639 64.2413 11.3272 63.9232 11.4256C63.6196 11.5239 63.3666 11.6715 63.1642 11.8682C62.9618 12.0509 62.8606 12.2969 62.8606 12.6061C62.8606 12.8028 62.9039 12.9715 62.9907 13.112C63.0919 13.2525 63.2148 13.365 63.3594 13.4493C63.504 13.5336 63.6702 13.5968 63.8582 13.639C64.0461 13.6671 64.2269 13.6812 64.4004 13.6812C65.1233 13.6812 65.6727 13.4914 66.0486 13.112C66.439 12.7185 66.6342 12.1915 66.6342 11.531V11.1726ZM60.1062 6.68248C60.7424 6.09223 61.4798 5.64954 62.3184 5.35441C63.1714 5.05929 64.0389 4.91173 64.9209 4.91173C65.8318 4.91173 66.5981 5.02415 67.2198 5.24901C67.8559 5.45982 68.3692 5.7971 68.7596 6.26087C69.15 6.71058 69.4319 7.28678 69.6054 7.98946C69.7934 8.67808 69.8873 9.50022 69.8873 10.4559V15.747H66.6342V14.6298H66.5691C66.2944 15.0654 65.8751 15.4027 65.3113 15.6416C64.7618 15.8805 64.1618 16 63.5112 16C63.0774 16 62.6292 15.9438 62.1665 15.8314C61.7039 15.7189 61.2774 15.5362 60.887 15.2833C60.5111 15.0303 60.2002 14.693 59.9544 14.2714C59.7086 13.8498 59.5857 13.3298 59.5857 12.7115C59.5857 11.9526 59.7954 11.3412 60.2147 10.8775C60.6484 10.4137 61.1978 10.0553 61.8629 9.80237C62.5425 9.54941 63.2943 9.38076 64.1184 9.29644C64.9426 9.21212 65.745 9.16996 66.5258 9.16996V9.00132C66.5258 8.48133 66.3378 8.10189 65.9619 7.86298C65.586 7.61001 65.1233 7.48353 64.5739 7.48353C64.0678 7.48353 63.5762 7.58893 63.0991 7.79974C62.6364 8.01054 62.2388 8.2635 61.9063 8.55863L60.1062 6.68248Z" fill="#001E40"></path><path d="M76.3422 1.89723C76.3422 2.16425 76.2844 2.41722 76.1687 2.65613C76.0675 2.88098 75.9229 3.07773 75.7349 3.24638C75.5614 3.41502 75.3446 3.54853 75.0843 3.6469C74.8385 3.74528 74.5783 3.79447 74.3036 3.79447C73.7252 3.79447 73.2409 3.61177 72.8505 3.24638C72.4601 2.86693 72.2649 2.41722 72.2649 1.89723C72.2649 1.64427 72.3155 1.40536 72.4167 1.1805C72.5179 0.94159 72.6625 0.737813 72.8505 0.56917C73.0385 0.400527 73.2553 0.267018 73.5011 0.168643C73.7469 0.0562144 74.0144 0 74.3036 0C74.5783 0 74.8385 0.0491877 75.0843 0.147563C75.3446 0.245938 75.5614 0.379447 75.7349 0.54809C75.9229 0.716732 76.0675 0.920509 76.1687 1.15942C76.2844 1.38428 76.3422 1.63021 76.3422 1.89723ZM72.5252 15.747V5.24901H76.0819V15.747H72.5252Z" fill="#001E40"></path><path d="M85.9307 15.747V10.0132C85.9307 9.71805 85.9018 9.43698 85.844 9.16996C85.8006 8.90294 85.7211 8.67106 85.6054 8.47431C85.4898 8.2635 85.3235 8.10189 85.1066 7.98946C84.9042 7.86298 84.644 7.79974 84.3259 7.79974C84.0078 7.79974 83.7258 7.86298 83.48 7.98946C83.2487 8.10189 83.0535 8.2635 82.8945 8.47431C82.7354 8.68511 82.6125 8.93105 82.5258 9.21212C82.4535 9.47914 82.4174 9.76021 82.4174 10.0553V15.747H78.8389V5.24901H82.2872V6.70356H82.3306C82.4607 6.4787 82.627 6.26087 82.8294 6.05007C83.0463 5.82521 83.2921 5.63549 83.5668 5.4809C83.856 5.32631 84.1668 5.19982 84.4994 5.10145C84.8319 5.00307 85.1861 4.95389 85.5621 4.95389C86.285 4.95389 86.8995 5.08037 87.4055 5.33333C87.9116 5.5863 88.3164 5.91656 88.62 6.32411C88.9381 6.71761 89.1622 7.17435 89.2923 7.69433C89.4369 8.21432 89.5092 8.7343 89.5092 9.25428V15.747H85.9307Z" fill="#001E40"></path><path d="M110.722 0.874195C110.659 0.748526 110.526 0.668701 110.38 0.668701H104.31C104.195 0.668701 104.086 0.71879 104.014 0.804814L97.9434 8.05468C97.8327 8.18707 97.8327 8.37504 97.9434 8.50744L104.014 15.7573C104.086 15.8433 104.195 15.8934 104.31 15.8934H110.38C110.526 15.8934 110.659 15.8136 110.722 15.6879C110.785 15.5624 110.768 15.4132 110.677 15.3045L104.796 8.28106L110.677 1.25757C110.768 1.1489 110.785 0.99969 110.722 0.874195Z" fill="#1887FC"></path><path d="M98.6108 0.804814C98.5393 0.71879 98.4306 0.668701 98.3159 0.668701H92.2718C92.1266 0.668701 91.9942 0.748526 91.9313 0.874195C91.8684 0.99969 91.8861 1.1489 91.9769 1.25757L97.8321 8.28106L91.9769 15.3045C91.8861 15.4132 91.8684 15.5624 91.9313 15.6879C91.9942 15.8136 92.1266 15.8934 92.2718 15.8934H98.3159C98.4306 15.8934 98.5393 15.8433 98.6108 15.7573L104.791 8.28106L98.6108 0.804814Z" fill="#001E40"></path><path fill-rule="evenodd" clip-rule="evenodd" d="M14.4434 15.7805L14.5277 4.95792H14.4614L9.02898 15.7805L3.59709 4.95792H3.52964L3.6146 15.7805H0V0.486328H5.42191L8.9838 10.2936H9.07416L12.6348 0.486328H18.058V15.7805H14.4434Z" fill="#001E40"></path>

</svg>